<svg xmlns="http://www.w3.org/2000/svg" version="1.1" xmlns:xlink="http://www.w3.org/1999/xlink" xmlns:svgjs="http://svgjs.dev/svgjs" width="128" height="128" viewBox="0 0 128 128"><g transform="matrix(0.8046875,0,0,0.8046875,12.248035326832259,29.767606247444014)"><svg viewBox="0 0 96 63" data-background-color="#ffffff" preserveAspectRatio="xMidYMid meet" height="84" width="128" xmlns="http://www.w3.org/2000/svg" xmlns:xlink="http://www.w3.org/1999/xlink"><g id="tight-bounds" transform="matrix(1,0,0,1,0.2595792109210464,0.40592039073179365)"><svg viewBox="0 0 95.481 62.164053393649766" height="62.164053393649766" width="95.481"><g><svg viewBox="0 0 95.481 62.164053393649766" height="62.164053393649766" width="95.481"><g><svg viewBox="0 0 95.481 62.164053393649766" height="62.164053393649766" width="95.481"><g id="textblocktransform"><svg viewBox="0 0 95.481 62.164053393649766" height="62.164053393649766" width="95.481" id="textblock"><g><svg viewBox="0 0 95.481 62.164053393649766" height="62.164053393649766" width="95.481"><g><svg viewBox="0 0 95.481 62.164053393649766" height="62.164053393649766" width="95.481"><g><svg xmlns="http://www.w3.org/2000/svg" xmlns:xlink="http://www.w3.org/1999/xlink" version="1.1" x="0" y="0" viewBox="5.99999999999999 26.122999999999994 89.32100000000001 58.153511307738626" enable-background="new 0 0 100 100" xml:space="preserve" height="62.164053393649766" width="95.481" class="icon-icon-0" data-fill-palette-color="accent" id="icon-0"><g fill="#ff6600" data-fill-palette-color="accent"><path d="M6 38.208L7.172 58.104C7.172 59.259 8.006 60.216 9.104 60.412A2 2 0 0 0 9.081 60.72V82.088A2.187 2.187 0 0 0 11.492 84.265H16.217C17.425 84.265 18.404 84.459 18.404 83.25A2.19 2.19 0 0 0 16.217 81.062L13.454 80.408V60.719C13.454 60.6 13.443 60.482 13.423 60.368A2.346 2.346 0 0 0 15.164 58.103L15.031 48.847 20.518 55.17A2.037 2.037 0 1 0 23.595 52.5L14.943 42.524 14.903 39.706 8.346 35.861A2.347 2.347 0 0 0 6 38.208" fill="#ff6600" data-fill-palette-color="accent"></path><circle cx="11.268" cy="30.645" r="4.5" fill="#ff6600" data-fill-palette-color="accent"></circle></g><g fill="#ff6600" data-fill-palette-color="accent"><path d="M68.521 57.877H78.478A0.439 0.439 0 0 0 78.478 56.999H68.521A0.439 0.439 0 0 0 68.521 57.877" fill="#ff6600" data-fill-palette-color="accent"></path><path d="M67.742 57.513A0.44 0.44 0 0 0 67.807 56.895L61.547 49.152A0.44 0.44 0 0 0 60.93 49.087 0.44 0.44 0 0 0 60.865 49.705L67.126 57.448A0.436 0.436 0 0 0 67.742 57.513" fill="#ff6600" data-fill-palette-color="accent"></path><path d="M78.199 58.471H68.095A2.304 2.304 0 0 0 65.792 60.776V81.354A2.304 2.304 0 0 0 68.095 83.659H78.199A2.304 2.304 0 0 0 80.503 81.354V60.775A2.304 2.304 0 0 0 78.199 58.471" fill="#ff6600" data-fill-palette-color="accent"></path><g fill="#ff6600" data-fill-palette-color="accent"><path d="M92.976 35.862L86.419 39.707 86.379 42.525 77.727 52.502A2.035 2.035 0 0 0 77.931 55.375 2.035 2.035 0 0 0 80.803 55.172L86.29 48.848 86.157 58.104C86.157 59.192 86.896 60.102 87.897 60.37 87.877 60.483 87.867 60.6 87.867 60.72V80.409L85.104 81.063C83.895 81.063 82.916 82.043 82.916 83.251S83.895 84.265 85.104 84.265H89.829A2.187 2.187 0 0 0 92.24 82.089V60.719C92.24 60.615 92.231 60.514 92.217 60.412A2.344 2.344 0 0 0 94.149 58.103L95.321 38.207A2.347 2.347 0 0 0 92.976 35.862" fill="#ff6600" data-fill-palette-color="accent"></path><circle cx="90.052" cy="30.645" r="4.5" fill="#ff6600" data-fill-palette-color="accent"></circle></g></g><g fill="#ff6600" data-fill-palette-color="accent"><g fill="#ff6600" data-fill-palette-color="accent"><path d="M39.572 47.591H37.844L40.154 49.9V48.172A0.58 0.58 0 0 0 39.572 47.591" fill="#ff6600" data-fill-palette-color="accent"></path><path d="M29.117 47.591A0.58 0.58 0 0 0 28.536 48.172V58.629A0.58 0.58 0 0 0 29.117 59.21H39.573C39.895 59.21 40.156 58.95 40.156 58.629V50.84L36.907 47.592zM36.104 58.579H35.565V58.042H36.104zM37.995 58.042H38.532V58.579H37.995zM37.371 58.579H36.833V58.042H37.371z" fill="#ff6600" data-fill-palette-color="accent"></path></g><g fill="#ff6600" data-fill-palette-color="accent"><path d="M52.91 47.592H51.183L53.491 49.9V48.172A0.58 0.58 0 0 0 52.91 47.592" fill="#ff6600" data-fill-palette-color="accent"></path><path d="M42.456 47.592A0.58 0.58 0 0 0 41.874 48.172V58.63C41.874 58.95 42.132 59.21 42.456 59.21H52.91A0.58 0.58 0 0 0 53.491 58.63V50.839L50.243 47.592zM49.444 58.579H48.906V58.042H49.444zM51.333 58.042H51.873V58.579H51.333zM50.708 58.579H50.171V58.042H50.708z" fill="#ff6600" data-fill-palette-color="accent"></path></g><g fill="#ff6600" data-fill-palette-color="accent"><path d="M39.572 60.931H37.844L40.154 63.239V61.511A0.58 0.58 0 0 0 39.572 60.931" fill="#ff6600" data-fill-palette-color="accent"></path><path d="M29.117 60.931A0.58 0.58 0 0 0 28.536 61.511V71.969C28.536 72.287 28.795 72.551 29.117 72.551H39.573A0.585 0.585 0 0 0 40.156 71.969V64.179L36.907 60.931zM36.104 71.921H35.565V71.383H36.104zM37.995 71.383H38.532V71.921H37.995zM37.371 71.921H36.833V71.383H37.371z" fill="#ff6600" data-fill-palette-color="accent"></path></g><g fill="#ff6600" data-fill-palette-color="accent"><path d="M52.91 60.931H51.183L53.491 63.239V61.511A0.58 0.58 0 0 0 52.91 60.931" fill="#ff6600" data-fill-palette-color="accent"></path><path d="M42.456 60.931A0.58 0.58 0 0 0 41.874 61.511V71.969C41.874 72.287 42.132 72.551 42.456 72.551H52.91A0.583 0.583 0 0 0 53.491 71.969V64.179L50.244 60.931zM49.444 71.921H48.906V71.383H49.444zM51.333 71.383H51.871V71.921H51.333zM50.708 71.921H50.171V71.383H50.708z" fill="#ff6600" data-fill-palette-color="accent"></path></g><polygon points="27.34,73.35 27.34,53.796 27.34,53.796 27.34,52.187 21.285,52.187 21.285,53.796 25.731,53.796 25.731,73.35    25.731,74.959 56.098,74.959 56.098,73.35  " fill="#ff6600" data-fill-palette-color="accent"></polygon><path d="M32.17 76.227A4.025 4.025 0 1 0 32.17 84.275 4.025 4.025 0 1 0 32.17 76.227M32.17 81.518A1.265 1.265 0 1 1 32.17 78.986 1.265 1.265 0 0 1 32.17 81.518" fill="#ff6600" data-fill-palette-color="accent"></path><path d="M48.415 76.227A4.02 4.02 0 0 0 44.392 80.25 4.023 4.023 0 0 0 48.415 84.275 4.023 4.023 0 1 0 48.415 76.227M48.415 81.518A1.266 1.266 0 1 1 48.42 78.986 1.266 1.266 0 0 1 48.415 81.518" fill="#ff6600" data-fill-palette-color="accent"></path></g></svg></g></svg></g></svg></g></svg></g></svg></g></svg></g><defs></defs></svg><rect width="95.481" height="62.164053393649766" fill="none" stroke="none" visibility="hidden"></rect></g></svg></g></svg>