<svg xmlns="http://www.w3.org/2000/svg" version="1.1" xmlns:xlink="http://www.w3.org/1999/xlink" xmlns:svgjs="http://svgjs.dev/svgjs" width="1500" height="1500" viewBox="0 0 1500 1500"><rect width="1500" height="1500" fill="#000000"></rect><g transform="matrix(0.6666666666666666,0,0,0.6666666666666666,249.39393939393932,621.7265661892864)"><svg viewBox="0 0 396 101" data-background-color="#ffffff" preserveAspectRatio="xMidYMid meet" height="382" width="1500" xmlns="http://www.w3.org/2000/svg" xmlns:xlink="http://www.w3.org/1999/xlink"><g id="tight-bounds" transform="matrix(1,0,0,1,0.2400000000000091,0.3728408961338232)"><svg viewBox="0 0 395.52 95.82026797628865" height="95.82026797628865" width="395.52"><g><svg viewBox="0 0 660.1709652188354 159.93567657118209" height="95.82026797628865" width="395.52"><g transform="matrix(1,0,0,1,262.6733652188354,19.428835324044087)"><svg viewBox="0 0 397.4975999999999 121.07800592309391" height="121.07800592309391" width="397.4975999999999"><g id="textblocktransform"><svg viewBox="0 0 397.4975999999999 121.07800592309391" height="121.07800592309391" width="397.4975999999999" id="textblock"><g><rect width="397.4975999999999" height="6.50158209599514" x="0" y="79.75371659860254" fill="#ffffff" opacity="1" stroke-width="0" stroke="transparent" fill-opacity="1" class="rect-yte-0" data-fill-palette-color="primary" rx="1%" id="yte-0" data-palette-color="#0e5ddd"></rect></g><g transform="matrix(1,0,0,1,0.9887999999999693,0)"><svg viewBox="0 0 395.52 72.09478481012658" height="72.09478481012658" width="395.52"><g transform="matrix(1,0,0,1,0,0)"><svg width="395.52" viewBox="2.35 -37.1 256.72999999999996 46.8" height="72.09478481012658" data-palette-color="#0e5ddd"><path d="M15.35 0.3Q11.45 0.3 7.88-0.95 4.3-2.2 2.35-4.25L2.35-4.25 3.8-7.1Q5.7-5.2 8.85-4.03 12-2.85 15.35-2.85L15.35-2.85Q20.05-2.85 22.4-4.58 24.75-6.3 24.75-9.05L24.75-9.05Q24.75-11.15 23.48-12.4 22.2-13.65 20.35-14.33 18.5-15 15.2-15.8L15.2-15.8Q11.25-16.8 8.9-17.73 6.55-18.65 4.88-20.55 3.2-22.45 3.2-25.7L3.2-25.7Q3.2-28.35 4.6-30.53 6-32.7 8.9-34 11.8-35.3 16.1-35.3L16.1-35.3Q19.1-35.3 21.98-34.48 24.85-33.65 26.95-32.2L26.95-32.2 25.7-29.25Q23.5-30.7 21-31.43 18.5-32.15 16.1-32.15L16.1-32.15Q11.5-32.15 9.18-30.38 6.85-28.6 6.85-25.8L6.85-25.8Q6.85-23.7 8.13-22.43 9.4-21.15 11.33-20.48 13.25-19.8 16.5-19L16.5-19Q20.35-18.05 22.73-17.13 25.1-16.2 26.75-14.33 28.4-12.45 28.4-9.25L28.4-9.25Q28.4-6.6 26.98-4.42 25.55-2.25 22.6-0.98 19.65 0.3 15.35 0.3L15.35 0.3ZM49.1-26.5Q54.05-26.5 56.97-23.63 59.9-20.75 59.9-15.25L59.9-15.25 59.9 0 56.35 0 56.35-14.9Q56.35-19 54.3-21.15 52.25-23.3 48.45-23.3L48.45-23.3Q44.2-23.3 41.72-20.78 39.25-18.25 39.25-13.8L39.25-13.8 39.25 0 35.7 0 35.7-37.1 39.25-37.1 39.25-21.7Q40.7-24 43.25-25.25 45.8-26.5 49.1-26.5L49.1-26.5ZM69.55 0L69.55-26.3 73.09-26.3 73.09 0 69.55 0ZM71.34-32.05Q70.25-32.05 69.5-32.8 68.75-33.55 68.75-34.6L68.75-34.6Q68.75-35.6 69.5-36.35 70.25-37.1 71.34-37.1L71.34-37.1Q72.44-37.1 73.19-36.38 73.94-35.65 73.94-34.65L73.94-34.65Q73.94-33.55 73.19-32.8 72.44-32.05 71.34-32.05L71.34-32.05ZM96.54-26.5Q100.24-26.5 103.24-24.83 106.24-23.15 107.94-20.1 109.64-17.05 109.64-13.15L109.64-13.15Q109.64-9.2 107.94-6.15 106.24-3.1 103.27-1.43 100.29 0.25 96.54 0.25L96.54 0.25Q93.34 0.25 90.77-1.07 88.19-2.4 86.54-4.95L86.54-4.95 86.54 9.7 82.99 9.7 82.99-26.3 86.39-26.3 86.39-21.1Q87.99-23.7 90.62-25.1 93.24-26.5 96.54-26.5L96.54-26.5ZM96.29-2.9Q99.04-2.9 101.29-4.17 103.54-5.45 104.82-7.8 106.09-10.15 106.09-13.15L106.09-13.15Q106.09-16.15 104.82-18.48 103.54-20.8 101.29-22.1 99.04-23.4 96.29-23.4L96.29-23.4Q93.49-23.4 91.27-22.1 89.04-20.8 87.77-18.48 86.49-16.15 86.49-13.15L86.49-13.15Q86.49-10.15 87.77-7.8 89.04-5.45 91.27-4.17 93.49-2.9 96.29-2.9L96.29-2.9ZM127.29 0.3Q123.39 0.3 119.81-0.95 116.24-2.2 114.29-4.25L114.29-4.25 115.74-7.1Q117.64-5.2 120.79-4.03 123.94-2.85 127.29-2.85L127.29-2.85Q131.99-2.85 134.34-4.58 136.69-6.3 136.69-9.05L136.69-9.05Q136.69-11.15 135.41-12.4 134.14-13.65 132.29-14.33 130.44-15 127.14-15.8L127.14-15.8Q123.19-16.8 120.84-17.73 118.49-18.65 116.81-20.55 115.14-22.45 115.14-25.7L115.14-25.7Q115.14-28.35 116.54-30.53 117.94-32.7 120.84-34 123.74-35.3 128.04-35.3L128.04-35.3Q131.04-35.3 133.91-34.48 136.79-33.65 138.89-32.2L138.89-32.2 137.64-29.25Q135.44-30.7 132.94-31.43 130.44-32.15 128.04-32.15L128.04-32.15Q123.44-32.15 121.11-30.38 118.79-28.6 118.79-25.8L118.79-25.8Q118.79-23.7 120.06-22.43 121.34-21.15 123.27-20.48 125.19-19.8 128.44-19L128.44-19Q132.29-18.05 134.66-17.13 137.04-16.2 138.69-14.33 140.34-12.45 140.34-9.25L140.34-9.25Q140.34-6.6 138.91-4.42 137.49-2.25 134.54-0.98 131.59 0.3 127.29 0.3L127.29 0.3ZM170.59-13.15L170.54-12.05 148.54-12.05Q148.84-7.95 151.69-5.43 154.54-2.9 158.89-2.9L158.89-2.9Q161.34-2.9 163.39-3.78 165.44-4.65 166.94-6.35L166.94-6.35 168.94-4.05Q167.19-1.95 164.56-0.85 161.94 0.25 158.79 0.25L158.79 0.25Q154.74 0.25 151.61-1.48 148.49-3.2 146.74-6.25 144.99-9.3 144.99-13.15L144.99-13.15Q144.99-17 146.66-20.05 148.34-23.1 151.26-24.8 154.19-26.5 157.84-26.5L157.84-26.5Q161.49-26.5 164.39-24.8 167.29-23.1 168.94-20.08 170.59-17.05 170.59-13.15L170.59-13.15ZM157.84-23.45Q154.04-23.45 151.46-21.03 148.89-18.6 148.54-14.7L148.54-14.7 167.19-14.7Q166.84-18.6 164.26-21.03 161.69-23.45 157.84-23.45L157.84-23.45ZM191.23-26.5Q196.19-26.5 199.11-23.63 202.03-20.75 202.03-15.25L202.03-15.25 202.03 0 198.48 0 198.48-14.9Q198.48-19 196.44-21.15 194.38-23.3 190.58-23.3L190.58-23.3Q186.33-23.3 183.86-20.78 181.38-18.25 181.38-13.8L181.38-13.8 181.38 0 177.83 0 177.83-26.3 181.23-26.3 181.23-21.45Q182.69-23.85 185.26-25.18 187.83-26.5 191.23-26.5L191.23-26.5ZM218.73 0.25Q215.53 0.25 212.61-0.68 209.68-1.6 208.03-3L208.03-3 209.63-5.8Q211.28-4.5 213.78-3.68 216.28-2.85 218.98-2.85L218.98-2.85Q222.58-2.85 224.31-3.98 226.03-5.1 226.03-7.15L226.03-7.15Q226.03-8.6 225.08-9.43 224.13-10.25 222.68-10.68 221.23-11.1 218.83-11.5L218.83-11.5Q215.63-12.1 213.68-12.73 211.73-13.35 210.36-14.85 208.98-16.35 208.98-19L208.98-19Q208.98-22.3 211.73-24.4 214.48-26.5 219.38-26.5L219.38-26.5Q221.93-26.5 224.48-25.83 227.03-25.15 228.68-24.05L228.68-24.05 227.13-21.2Q223.88-23.45 219.38-23.45L219.38-23.45Q215.98-23.45 214.26-22.25 212.53-21.05 212.53-19.1L212.53-19.1Q212.53-17.6 213.51-16.7 214.48-15.8 215.93-15.38 217.38-14.95 219.93-14.5L219.93-14.5Q223.08-13.9 224.98-13.3 226.88-12.7 228.23-11.25 229.58-9.8 229.58-7.25L229.58-7.25Q229.58-3.8 226.71-1.78 223.83 0.25 218.73 0.25L218.73 0.25ZM259.08-13.15L259.03-12.05 237.03-12.05Q237.33-7.95 240.18-5.43 243.03-2.9 247.38-2.9L247.38-2.9Q249.83-2.9 251.88-3.78 253.93-4.65 255.43-6.35L255.43-6.35 257.43-4.05Q255.68-1.95 253.06-0.85 250.43 0.25 247.28 0.25L247.28 0.25Q243.23 0.25 240.11-1.48 236.98-3.2 235.23-6.25 233.48-9.3 233.48-13.15L233.48-13.15Q233.48-17 235.16-20.05 236.83-23.1 239.75-24.8 242.68-26.5 246.33-26.5L246.33-26.5Q249.98-26.5 252.88-24.8 255.78-23.1 257.43-20.08 259.08-17.05 259.08-13.15L259.08-13.15ZM246.33-23.45Q242.53-23.45 239.96-21.03 237.38-18.6 237.03-14.7L237.03-14.7 255.68-14.7Q255.33-18.6 252.75-21.03 250.18-23.45 246.33-23.45L246.33-23.45Z" opacity="1" transform="matrix(1,0,0,1,0,0)" fill="#ffffff" class="wordmark-text-0" data-fill-palette-color="primary" id="text-0"></path></svg></g></svg></g><g transform="matrix(1,0,0,1,0,93.91423048307364)"><svg viewBox="0 0 232.20979200000002 27.163775440020284" height="27.163775440020284" width="232.20979200000002"><g transform="matrix(1,0,0,1,0,0)"><svg width="232.20979200000002" viewBox="1.93 -37.15 394.25 46.12" height="27.163775440020284" data-palette-color="#333333"><path d="M12.68-14.25L10.13-14.25 8.38 0 1.93 0 6.35-36.15 16.63-36.15Q19.75-36.15 21.98-35.49 24.2-34.83 25.63-33.64 27.05-32.45 27.73-30.8 28.4-29.15 28.4-27.18L28.4-27.18Q28.4-25.08 27.81-23.24 27.23-21.4 26.13-19.9 25.03-18.4 23.43-17.28 21.83-16.15 19.8-15.53L19.8-15.53Q20.38-15.18 20.85-14.68 21.33-14.18 21.68-13.48L21.68-13.48 28.13 0 22.3 0Q21.48 0 20.91-0.34 20.35-0.68 20.08-1.3L20.08-1.3 14.78-13.03Q14.48-13.68 14.04-13.96 13.6-14.25 12.68-14.25L12.68-14.25ZM16.03-31.15L12.23-31.15 10.7-18.88 14.45-18.88Q16.4-18.88 17.81-19.44 19.23-20 20.14-20.99 21.05-21.98 21.5-23.3 21.95-24.63 21.95-26.15L21.95-26.15Q21.95-28.5 20.5-29.83 19.05-31.15 16.03-31.15L16.03-31.15ZM53.17-19.7L53.17-19.7Q53.17-17.98 52.48-16.55 51.8-15.13 50.02-14 48.25-12.88 45.21-12.06 42.17-11.25 37.47-10.78L37.47-10.78 37.47-10.45Q37.47-4.4 42.6-4.4L42.6-4.4Q43.7-4.4 44.55-4.61 45.4-4.83 46.03-5.13 46.67-5.43 47.19-5.8 47.7-6.18 48.14-6.48 48.57-6.78 49-6.99 49.42-7.2 49.92-7.2L49.92-7.2Q50.22-7.2 50.52-7.06 50.82-6.93 51.02-6.65L51.02-6.65 52.6-4.75Q51.27-3.43 50-2.45 48.72-1.48 47.4-0.85 46.07-0.23 44.6 0.08 43.12 0.38 41.37 0.38L41.37 0.38Q39.12 0.38 37.3-0.39 35.47-1.15 34.17-2.54 32.87-3.93 32.16-5.89 31.45-7.85 31.45-10.28L31.45-10.28Q31.45-12.3 31.89-14.25 32.32-16.2 33.15-17.95 33.97-19.7 35.17-21.18 36.37-22.65 37.88-23.73 39.4-24.8 41.21-25.4 43.02-26 45.1-26L45.1-26Q47.12-26 48.64-25.43 50.15-24.85 51.16-23.94 52.17-23.03 52.67-21.9 53.17-20.78 53.17-19.7ZM44.75-21.7L44.75-21.7Q43.5-21.7 42.42-21.19 41.35-20.68 40.48-19.75 39.62-18.82 38.98-17.54 38.35-16.25 37.97-14.73L37.97-14.73Q41.07-15.15 42.96-15.65 44.85-16.15 45.89-16.75 46.92-17.35 47.26-18.03 47.6-18.7 47.6-19.48L47.6-19.48Q47.6-19.85 47.44-20.25 47.27-20.65 46.94-20.96 46.6-21.28 46.06-21.49 45.52-21.7 44.75-21.7ZM78.42-24.88L75.32 0 72.07 0Q70.95 0 70.5-0.53 70.05-1.05 70.05-1.85L70.05-1.85 70.25-5.35Q68.55-2.7 66.42-1.16 64.3 0.38 61.75 0.38L61.75 0.38Q60.3 0.38 59.03-0.2 57.77-0.78 56.83-1.91 55.9-3.05 55.36-4.76 54.82-6.48 54.82-8.78L54.82-8.78Q54.82-11.08 55.4-13.25 55.97-15.43 57.03-17.34 58.1-19.25 59.6-20.85 61.1-22.45 62.96-23.6 64.82-24.75 66.98-25.39 69.15-26.03 71.55-26.03L71.55-26.03Q73.27-26.03 75.01-25.78 76.75-25.53 78.42-24.88L78.42-24.88ZM64.17-4.67L64.17-4.67Q65.2-4.67 66.18-5.38 67.17-6.08 68.05-7.31 68.92-8.55 69.67-10.23 70.42-11.9 70.97-13.83L70.97-13.83 71.95-21.58Q71.27-21.65 70.7-21.65L70.7-21.65Q68.62-21.65 66.84-20.7 65.07-19.75 63.77-18.14 62.47-16.53 61.73-14.39 61-12.25 61-9.88L61-9.88Q61-7.18 61.85-5.93 62.7-4.67 64.17-4.67ZM87.44 0L81.37 0 85.87-37.15 91.94-37.15 87.44 0ZM94.56-12.6L95.17-17.57 107.19-17.57 106.56-12.6 94.56-12.6ZM107.39-36.15L133.71-36.15 133.04-30.83 123.14-30.83 119.34 0 112.89 0 116.66-30.83 106.74-30.83 107.39-36.15ZM136.24-25.65L142.34-25.65 139.26 0 133.16 0 136.24-25.65ZM143.88-33.13L143.88-33.13Q143.88-32.33 143.55-31.63 143.21-30.93 142.67-30.4 142.13-29.88 141.44-29.56 140.74-29.25 139.99-29.25L139.99-29.25Q139.26-29.25 138.57-29.56 137.88-29.88 137.36-30.4 136.84-30.93 136.52-31.63 136.21-32.33 136.21-33.13L136.21-33.13Q136.21-33.93 136.53-34.65 136.86-35.38 137.38-35.91 137.91-36.45 138.6-36.76 139.28-37.08 140.01-37.08L140.01-37.08Q140.76-37.08 141.46-36.76 142.16-36.45 142.7-35.93 143.24-35.4 143.56-34.68 143.88-33.95 143.88-33.13ZM151.53 0L145.48 0 148.61-25.68 151.73-25.68Q152.68-25.68 153.23-25.23 153.78-24.78 153.78-23.8L153.78-23.8Q153.78-23.78 153.78-23.73 153.78-23.68 153.77-23.39 153.76-23.1 153.73-22.51 153.71-21.93 153.66-20.85L153.66-20.85Q155.38-23.48 157.41-24.76 159.43-26.05 161.63-26.05L161.63-26.05Q164.01-26.05 165.37-24.48 166.73-22.9 166.96-19.93L166.96-19.93Q168.76-23.08 170.94-24.56 173.13-26.05 175.71-26.05L175.71-26.05Q178.58-26.05 180.15-24.11 181.71-22.18 181.71-18.53L181.71-18.53Q181.71-18.03 181.68-17.46 181.66-16.9 181.58-16.32L181.58-16.32 179.66 0 173.56 0Q174.06-4.25 174.41-7.21 174.76-10.18 174.98-12.16 175.21-14.15 175.33-15.28 175.46-16.4 175.52-17.01 175.58-17.63 175.59-17.84 175.61-18.05 175.61-18.18L175.61-18.18Q175.61-19.68 175.11-20.34 174.61-21 173.48-21L173.48-21Q172.53-21 171.63-20.5 170.73-20 169.92-19.05 169.11-18.1 168.42-16.73 167.73-15.35 167.21-13.63L167.21-13.63 165.61 0 159.53 0 161.46-16.32Q161.51-16.85 161.55-17.31 161.58-17.78 161.58-18.18L161.58-18.18Q161.58-19.68 161.09-20.34 160.61-21 159.48-21L159.48-21Q158.51-21 157.58-20.48 156.66-19.95 155.84-18.96 155.03-17.98 154.34-16.56 153.66-15.15 153.13-13.4L153.13-13.4 151.53 0ZM206.66-19.7L206.66-19.7Q206.66-17.98 205.97-16.55 205.28-15.13 203.51-14 201.73-12.88 198.69-12.06 195.66-11.25 190.96-10.78L190.96-10.78 190.96-10.45Q190.96-4.4 196.08-4.4L196.08-4.4Q197.18-4.4 198.03-4.61 198.88-4.83 199.52-5.13 200.16-5.43 200.67-5.8 201.18-6.18 201.62-6.48 202.06-6.78 202.48-6.99 202.91-7.2 203.41-7.2L203.41-7.2Q203.71-7.2 204.01-7.06 204.31-6.93 204.51-6.65L204.51-6.65 206.08-4.75Q204.76-3.43 203.48-2.45 202.21-1.48 200.88-0.85 199.56-0.23 198.08 0.08 196.61 0.38 194.86 0.38L194.86 0.38Q192.61 0.38 190.78-0.39 188.96-1.15 187.66-2.54 186.36-3.93 185.64-5.89 184.93-7.85 184.93-10.28L184.93-10.28Q184.93-12.3 185.37-14.25 185.81-16.2 186.63-17.95 187.46-19.7 188.66-21.18 189.86-22.65 191.37-23.73 192.88-24.8 194.69-25.4 196.51-26 198.58-26L198.58-26Q200.61-26 202.12-25.43 203.63-24.85 204.64-23.94 205.66-23.03 206.16-21.9 206.66-20.78 206.66-19.7ZM198.23-21.7L198.23-21.7Q196.98-21.7 195.91-21.19 194.83-20.68 193.97-19.75 193.11-18.82 192.47-17.54 191.83-16.25 191.46-14.73L191.46-14.73Q194.56-15.15 196.44-15.65 198.33-16.15 199.37-16.75 200.41-17.35 200.74-18.03 201.08-18.7 201.08-19.48L201.08-19.48Q201.08-19.85 200.92-20.25 200.76-20.65 200.42-20.96 200.08-21.28 199.54-21.49 199.01-21.7 198.23-21.7ZM220.48-36.15L246.8-36.15 246.13-30.83 236.23-30.83 232.43 0 225.98 0 229.75-30.83 219.83-30.83 220.48-36.15ZM248.07 0L242.02 0 245.15-25.68 248.27-25.68Q249.17-25.68 249.75-25.28 250.32-24.88 250.32-24L250.32-24Q250.32-24 250.32-23.91 250.32-23.83 250.3-23.4 250.27-22.98 250.25-22.06 250.22-21.15 250.15-19.5L250.15-19.5Q251.72-22.53 253.6-24.18 255.47-25.83 257.5-25.83L257.5-25.83Q258.52-25.83 259.57-25.38L259.57-25.38 258.45-19.48Q257.2-20 256.07-20L256.07-20Q253.85-20 252.17-17.88 250.5-15.75 249.42-11.23L249.42-11.23 248.07 0ZM282.45-24.88L279.35 0 276.1 0Q274.97 0 274.52-0.53 274.07-1.05 274.07-1.85L274.07-1.85 274.27-5.35Q272.57-2.7 270.45-1.16 268.32 0.38 265.77 0.38L265.77 0.38Q264.32 0.38 263.06-0.2 261.8-0.78 260.86-1.91 259.92-3.05 259.38-4.76 258.85-6.48 258.85-8.78L258.85-8.78Q258.85-11.08 259.42-13.25 260-15.43 261.06-17.34 262.12-19.25 263.62-20.85 265.12-22.45 266.98-23.6 268.85-24.75 271.01-25.39 273.17-26.03 275.57-26.03L275.57-26.03Q277.3-26.03 279.03-25.78 280.77-25.53 282.45-24.88L282.45-24.88ZM268.2-4.67L268.2-4.67Q269.22-4.67 270.21-5.38 271.2-6.08 272.07-7.31 272.95-8.55 273.7-10.23 274.45-11.9 275-13.83L275-13.83 275.97-21.58Q275.3-21.65 274.72-21.65L274.72-21.65Q272.65-21.65 270.87-20.7 269.1-19.75 267.8-18.14 266.5-16.53 265.76-14.39 265.02-12.25 265.02-9.88L265.02-9.88Q265.02-7.18 265.87-5.93 266.72-4.67 268.2-4.67ZM304.72-4.55L304.72-4.55Q303.44-3.15 302.28-2.2 301.12-1.25 299.92-0.68 298.72-0.1 297.39 0.14 296.07 0.38 294.49 0.38L294.49 0.38Q292.27 0.38 290.51-0.39 288.74-1.15 287.52-2.55 286.29-3.95 285.66-5.93 285.02-7.9 285.02-10.33L285.02-10.33Q285.02-13.45 286.02-16.29 287.02-19.13 288.82-21.29 290.62-23.45 293.09-24.74 295.57-26.03 298.49-26.03L298.49-26.03Q301.04-26.03 302.83-25.13 304.62-24.23 306.02-22.43L306.02-22.43 304.04-20.08Q303.82-19.85 303.53-19.66 303.24-19.48 302.89-19.48L302.89-19.48Q302.47-19.48 302.12-19.74 301.77-20 301.31-20.3 300.84-20.6 300.16-20.86 299.47-21.13 298.37-21.13L298.37-21.13Q296.94-21.13 295.64-20.35 294.34-19.58 293.36-18.15 292.37-16.73 291.78-14.73 291.19-12.73 291.19-10.3L291.19-10.3Q291.19-7.48 292.44-5.94 293.69-4.4 295.82-4.4L295.82-4.4Q297.24-4.4 298.18-4.81 299.12-5.23 299.77-5.71 300.42-6.2 300.93-6.61 301.44-7.03 302.04-7.03L302.04-7.03Q302.34-7.03 302.63-6.86 302.92-6.7 303.14-6.45L303.14-6.45 304.72-4.55ZM311.64-37.15L317.74-37.15 315.14-15.88 315.77-15.88Q316.34-15.88 316.7-16.05 317.06-16.23 317.47-16.7L317.47-16.7 324.27-24.58Q324.72-25.08 325.19-25.36 325.67-25.65 326.39-25.65L326.39-25.65 331.89-25.65 323.44-16.13Q322.97-15.6 322.49-15.16 322.02-14.73 321.49-14.4L321.49-14.4Q321.97-14.05 322.28-13.54 322.59-13.03 322.89-12.45L322.89-12.45 329.24 0 323.89 0Q323.22 0 322.78-0.25 322.34-0.5 322.04-1.1L322.04-1.1 317.06-10.83Q316.77-11.4 316.45-11.58 316.14-11.75 315.44-11.75L315.44-11.75 314.62-11.75 313.19 0 307.09 0 311.64-37.15ZM335.94-25.65L342.04-25.65 338.96 0 332.86 0 335.94-25.65ZM343.59-33.13L343.59-33.13Q343.59-32.33 343.25-31.63 342.91-30.93 342.38-30.4 341.84-29.88 341.14-29.56 340.44-29.25 339.69-29.25L339.69-29.25Q338.96-29.25 338.28-29.56 337.59-29.88 337.06-30.4 336.54-30.93 336.23-31.63 335.91-32.33 335.91-33.13L335.91-33.13Q335.91-33.93 336.24-34.65 336.56-35.38 337.09-35.91 337.61-36.45 338.3-36.76 338.99-37.08 339.71-37.08L339.71-37.08Q340.46-37.08 341.16-36.76 341.86-36.45 342.4-35.93 342.94-35.4 343.26-34.68 343.59-33.95 343.59-33.13ZM351.36 0L345.19 0 348.26-25.68 351.41-25.68Q352.39-25.68 352.92-25.2 353.46-24.73 353.46-23.68L353.46-23.68 353.29-20.35Q355.24-23.23 357.61-24.64 359.99-26.05 362.51-26.05L362.51-26.05Q363.94-26.05 365.1-25.54 366.26-25.03 367.09-24.04 367.91-23.05 368.36-21.61 368.81-20.18 368.81-18.3L368.81-18.3Q368.81-17.82 368.77-17.34 368.74-16.85 368.69-16.32L368.69-16.32 366.76 0 360.59 0Q361.09-4.23 361.44-7.16 361.79-10.1 362.01-12.05 362.24-14 362.36-15.11 362.49-16.23 362.55-16.8 362.61-17.38 362.62-17.56 362.64-17.75 362.64-17.88L362.64-17.88Q362.64-19.53 362.04-20.26 361.44-21 360.16-21L360.16-21Q359.14-21 358.04-20.4 356.94-19.8 355.94-18.7 354.94-17.6 354.11-16.05 353.29-14.5 352.76-12.6L352.76-12.6 351.36 0ZM392.31-18.23L392.31-18.23Q392.31-17.07 392.06-16.16 391.81-15.25 391.45-14.48 391.08-13.7 390.66-13.01 390.23-12.33 389.86-11.61 389.48-10.9 389.25-10.11 389.01-9.33 389.01-8.38L389.01-8.38Q389.01-7.35 389.43-6.49 389.86-5.63 390.36-4.73 390.86-3.83 391.28-2.8 391.71-1.78 391.71-0.43L391.71-0.43Q391.71 1.48 390.86 3.19 390.01 4.9 388.41 6.19 386.81 7.48 384.51 8.22 382.21 8.97 379.31 8.97L379.31 8.97Q376.93 8.97 375.05 8.49 373.16 8 371.82 7.13 370.48 6.25 369.77 5.06 369.06 3.88 369.06 2.45L369.06 2.45Q369.06 0.33 370.13-1.13 371.21-2.58 372.91-3.46 374.61-4.35 376.72-4.74 378.83-5.13 380.93-5.13L380.93-5.13Q381.96-5.13 382.93-5.04 383.91-4.95 384.78-4.8L384.78-4.8Q384.68-5.2 384.62-5.6 384.56-6 384.56-6.45L384.56-6.45Q384.56-7.9 385.36-9.65L385.36-9.65Q384.41-9 383.21-8.65 382.01-8.3 380.31-8.3L380.31-8.3Q378.86-8.3 377.55-8.78 376.23-9.25 375.23-10.23 374.23-11.2 373.65-12.66 373.06-14.13 373.06-16.07L373.06-16.07Q373.06-17.95 373.76-19.74 374.46-21.53 375.83-22.94 377.21-24.35 379.23-25.2 381.26-26.05 383.93-26.05L383.93-26.05Q385.36-26.05 386.65-25.71 387.93-25.38 389.01-24.73L389.01-24.73 396.18-24.73 395.91-22.73Q395.81-22.13 395.52-21.7 395.23-21.28 394.68-21.13L394.68-21.13 392.06-20.43Q392.18-19.93 392.25-19.38 392.31-18.82 392.31-18.23ZM382.06-12.03L382.06-12.03Q383.18-12.03 384.03-12.55 384.88-13.08 385.47-13.93 386.06-14.78 386.36-15.84 386.66-16.9 386.66-18L386.66-18Q386.66-19.88 385.78-20.88 384.91-21.88 383.23-21.88L383.23-21.88Q382.11-21.88 381.26-21.39 380.41-20.9 379.83-20.09 379.26-19.28 378.97-18.23 378.68-17.18 378.68-16.05L378.68-16.05Q378.68-14.13 379.55-13.08 380.41-12.03 382.06-12.03ZM386.08 0.1L386.08 0.1Q386.08-0.25 386.05-0.59 386.01-0.93 385.96-1.23L385.96-1.23Q384.61-1.45 383.47-1.55 382.33-1.65 381.33-1.65L381.33-1.65Q379.63-1.65 378.42-1.38 377.21-1.1 376.42-0.65 375.63-0.2 375.27 0.4 374.91 1 374.91 1.68L374.91 1.68Q374.91 3.18 376.11 3.95 377.31 4.73 379.81 4.73L379.81 4.73Q381.21 4.73 382.36 4.38 383.51 4.03 384.33 3.4 385.16 2.78 385.62 1.93 386.08 1.07 386.08 0.1Z" opacity="1" transform="matrix(1,0,0,1,0,0)" fill="#ffffff" class="slogan-text-1" data-fill-palette-color="secondary" id="text-1"></path></svg></g></svg></g></svg></g></svg></g><g><svg viewBox="0 0 245.65351679999995 159.93567657118209" height="159.93567657118209" width="245.65351679999995"><g><svg xmlns="http://www.w3.org/2000/svg" xmlns:xlink="http://www.w3.org/1999/xlink" version="1.1" x="0" y="0" viewBox="5.99999999999999 26.122999999999994 89.32100000000001 58.153511307738626" enable-background="new 0 0 100 100" xml:space="preserve" height="159.93567657118209" width="245.65351679999995" class="icon-icon-0" data-fill-palette-color="accent" id="icon-0"><g fill="#ff6600" data-fill-palette-color="accent"><path d="M6 38.208L7.172 58.104C7.172 59.259 8.006 60.216 9.104 60.412A2 2 0 0 0 9.081 60.72V82.088A2.187 2.187 0 0 0 11.492 84.265H16.217C17.425 84.265 18.404 84.459 18.404 83.25A2.19 2.19 0 0 0 16.217 81.062L13.454 80.408V60.719C13.454 60.6 13.443 60.482 13.423 60.368A2.346 2.346 0 0 0 15.164 58.103L15.031 48.847 20.518 55.17A2.037 2.037 0 1 0 23.595 52.5L14.943 42.524 14.903 39.706 8.346 35.861A2.347 2.347 0 0 0 6 38.208" fill="#ffffff" data-fill-palette-color="accent"></path><circle cx="11.268" cy="30.645" r="4.5" fill="#ffffff" data-fill-palette-color="accent"></circle></g><g fill="#ff6600" data-fill-palette-color="accent"><path d="M68.521 57.877H78.478A0.439 0.439 0 0 0 78.478 56.999H68.521A0.439 0.439 0 0 0 68.521 57.877" fill="#ffffff" data-fill-palette-color="accent"></path><path d="M67.742 57.513A0.44 0.44 0 0 0 67.807 56.895L61.547 49.152A0.44 0.44 0 0 0 60.93 49.087 0.44 0.44 0 0 0 60.865 49.705L67.126 57.448A0.436 0.436 0 0 0 67.742 57.513" fill="#ffffff" data-fill-palette-color="accent"></path><path d="M78.199 58.471H68.095A2.304 2.304 0 0 0 65.792 60.776V81.354A2.304 2.304 0 0 0 68.095 83.659H78.199A2.304 2.304 0 0 0 80.503 81.354V60.775A2.304 2.304 0 0 0 78.199 58.471" fill="#ffffff" data-fill-palette-color="accent"></path><g fill="#ff6600" data-fill-palette-color="accent"><path d="M92.976 35.862L86.419 39.707 86.379 42.525 77.727 52.502A2.035 2.035 0 0 0 77.931 55.375 2.035 2.035 0 0 0 80.803 55.172L86.29 48.848 86.157 58.104C86.157 59.192 86.896 60.102 87.897 60.37 87.877 60.483 87.867 60.6 87.867 60.72V80.409L85.104 81.063C83.895 81.063 82.916 82.043 82.916 83.251S83.895 84.265 85.104 84.265H89.829A2.187 2.187 0 0 0 92.24 82.089V60.719C92.24 60.615 92.231 60.514 92.217 60.412A2.344 2.344 0 0 0 94.149 58.103L95.321 38.207A2.347 2.347 0 0 0 92.976 35.862" fill="#ffffff" data-fill-palette-color="accent"></path><circle cx="90.052" cy="30.645" r="4.5" fill="#ffffff" data-fill-palette-color="accent"></circle></g></g><g fill="#ff6600" data-fill-palette-color="accent"><g fill="#ff6600" data-fill-palette-color="accent"><path d="M39.572 47.591H37.844L40.154 49.9V48.172A0.58 0.58 0 0 0 39.572 47.591" fill="#ffffff" data-fill-palette-color="accent"></path><path d="M29.117 47.591A0.58 0.58 0 0 0 28.536 48.172V58.629A0.58 0.58 0 0 0 29.117 59.21H39.573C39.895 59.21 40.156 58.95 40.156 58.629V50.84L36.907 47.592zM36.104 58.579H35.565V58.042H36.104zM37.995 58.042H38.532V58.579H37.995zM37.371 58.579H36.833V58.042H37.371z" fill="#ffffff" data-fill-palette-color="accent"></path></g><g fill="#ff6600" data-fill-palette-color="accent"><path d="M52.91 47.592H51.183L53.491 49.9V48.172A0.58 0.58 0 0 0 52.91 47.592" fill="#ffffff" data-fill-palette-color="accent"></path><path d="M42.456 47.592A0.58 0.58 0 0 0 41.874 48.172V58.63C41.874 58.95 42.132 59.21 42.456 59.21H52.91A0.58 0.58 0 0 0 53.491 58.63V50.839L50.243 47.592zM49.444 58.579H48.906V58.042H49.444zM51.333 58.042H51.873V58.579H51.333zM50.708 58.579H50.171V58.042H50.708z" fill="#ffffff" data-fill-palette-color="accent"></path></g><g fill="#ff6600" data-fill-palette-color="accent"><path d="M39.572 60.931H37.844L40.154 63.239V61.511A0.58 0.58 0 0 0 39.572 60.931" fill="#ffffff" data-fill-palette-color="accent"></path><path d="M29.117 60.931A0.58 0.58 0 0 0 28.536 61.511V71.969C28.536 72.287 28.795 72.551 29.117 72.551H39.573A0.585 0.585 0 0 0 40.156 71.969V64.179L36.907 60.931zM36.104 71.921H35.565V71.383H36.104zM37.995 71.383H38.532V71.921H37.995zM37.371 71.921H36.833V71.383H37.371z" fill="#ffffff" data-fill-palette-color="accent"></path></g><g fill="#ff6600" data-fill-palette-color="accent"><path d="M52.91 60.931H51.183L53.491 63.239V61.511A0.58 0.58 0 0 0 52.91 60.931" fill="#ffffff" data-fill-palette-color="accent"></path><path d="M42.456 60.931A0.58 0.58 0 0 0 41.874 61.511V71.969C41.874 72.287 42.132 72.551 42.456 72.551H52.91A0.583 0.583 0 0 0 53.491 71.969V64.179L50.244 60.931zM49.444 71.921H48.906V71.383H49.444zM51.333 71.383H51.871V71.921H51.333zM50.708 71.921H50.171V71.383H50.708z" fill="#ffffff" data-fill-palette-color="accent"></path></g><polygon points="27.34,73.35 27.34,53.796 27.34,53.796 27.34,52.187 21.285,52.187 21.285,53.796 25.731,53.796 25.731,73.35    25.731,74.959 56.098,74.959 56.098,73.35  " fill="#ffffff" data-fill-palette-color="accent"></polygon><path d="M32.17 76.227A4.025 4.025 0 1 0 32.17 84.275 4.025 4.025 0 1 0 32.17 76.227M32.17 81.518A1.265 1.265 0 1 1 32.17 78.986 1.265 1.265 0 0 1 32.17 81.518" fill="#ffffff" data-fill-palette-color="accent"></path><path d="M48.415 76.227A4.02 4.02 0 0 0 44.392 80.25 4.023 4.023 0 0 0 48.415 84.275 4.023 4.023 0 1 0 48.415 76.227M48.415 81.518A1.266 1.266 0 1 1 48.42 78.986 1.266 1.266 0 0 1 48.415 81.518" fill="#ffffff" data-fill-palette-color="accent"></path></g></svg></g></svg></g></svg></g><defs></defs></svg><rect width="395.52" height="95.82026797628865" fill="none" stroke="none" visibility="hidden"></rect></g></svg></g></svg>